<svg viewBox="0 0 800 400" xmlns="http://www.w3.org/2000/svg">
  <defs>
    <linearGradient id="g2" x1="0" y1="0" x2="1" y2="1">
      <stop offset="0" stop-color="#3A2418"/>
      <stop offset="0.6" stop-color="#6B3A1D"/>
      <stop offset="1" stop-color="#A05B28"/>
    </linearGradient>
    <radialGradient id="warm" cx="0.2" cy="0.25" r="0.7">
      <stop offset="0" stop-color="#FFB37A" stop-opacity="0.35"/>
      <stop offset="1" stop-color="#FFB37A" stop-opacity="0"/>
    </radialGradient>
  </defs>
  <rect width="800" height="400" fill="url(#g2)"/>
  <rect width="800" height="400" fill="url(#warm)"/>
  <g opacity="0.5">
    <circle cx="600" cy="200" r="160" fill="none" stroke="#FFB37A" stroke-width="2" stroke-dasharray="2 6"/>
    <circle cx="600" cy="200" r="120" fill="none" stroke="#FFB37A" stroke-width="2" stroke-dasharray="2 6"/>
  </g>
  <g transform="translate(560 130)">
    <ellipse cx="40" cy="80" rx="55" ry="14" fill="#FFFFFF" opacity="0.95"/>
    <path d="M -10 75 L 90 75 L 80 150 Q 78 168 60 168 L 20 168 Q 2 168 0 150 Z" fill="#FFFFFF"/>
    <path d="M 88 95 Q 120 95 120 122 Q 120 144 96 144" fill="none" stroke="#FFFFFF" stroke-width="9" stroke-linecap="round"/>
    <g stroke="#FFD8B5" stroke-width="4" stroke-linecap="round" fill="none" opacity="0.8">
      <path d="M 20 50 Q 14 62 20 74"/>
      <path d="M 40 38 Q 32 54 40 70"/>
      <path d="M 60 50 Q 54 62 60 74"/>
    </g>
  </g>
  <rect x="50" y="60" rx="22" width="230" height="44" fill="#FFB37A"/>
  <text x="165" y="90" font-family="-apple-system,BlinkMacSystemFont,'Segoe UI',system-ui,sans-serif" font-weight="900" font-size="18" fill="#3A2418" text-anchor="middle">☕ COMBO TRÀ CHIỀU</text>
  <text x="50" y="180" font-family="-apple-system,BlinkMacSystemFont,'Segoe UI',system-ui,sans-serif" font-weight="900" font-size="64" fill="#FFFFFF">2 người</text>
  <text x="50" y="248" font-family="-apple-system,BlinkMacSystemFont,'Segoe UI',system-ui,sans-serif" font-weight="900" font-size="56" fill="#FFD8B5">chỉ 99K</text>
  <text x="50" y="290" font-family="-apple-system,BlinkMacSystemFont,'Segoe UI',system-ui,sans-serif" font-weight="500" font-size="22" fill="#FFD8B5" opacity="0.9">2 đồ uống + bánh ngọt · tặng kèm voucher 10%</text>
  <rect x="50" y="320" rx="30" width="260" height="58" fill="#FFFFFF"/>
  <text x="180" y="358" font-family="-apple-system,BlinkMacSystemFont,'Segoe UI',system-ui,sans-serif" font-weight="900" font-size="20" fill="#6B3A1D" text-anchor="middle">XEM COMBO →</text>
</svg>
